<svg xmlns="http://www.w3.org/2000/svg" x="0px" y="0px"
width="64" height="64"
viewBox="0 0 172 172"
style=" fill:#000000;"><g fill="none" fill-rule="nonzero" stroke="none" stroke-width="1" stroke-linecap="butt" stroke-linejoin="miter" stroke-miterlimit="10" stroke-dasharray="" stroke-dashoffset="0" font-family="none" font-weight="none" font-size="none" text-anchor="none" style="mix-blend-mode: normal"><path d="M0,172v-172h172v172z" fill="none"></path><g fill="#000000"><path d="M83.5802,41.65625c-9.675,0 -17.46875,7.79375 -17.46875,17.46875v59.125c0,9.675 7.79375,17.46875 17.46875,17.46875h3.22552c7.65938,0 14.37865,-4.97135 16.66303,-12.2276l2.4198,-7.7948c0.67188,-2.15 -0.5375,-4.4328 -2.6875,-5.10468c-2.15,-0.67187 -4.43542,0.5375 -5.1073,2.6875l-2.4198,7.65833c-1.20938,4.03125 -4.83698,6.71875 -8.86823,6.71875h-3.22552c-5.24062,0 -9.40625,-4.16562 -9.40625,-9.40625v-59.125c0,-5.24063 4.16563,-9.40625 9.40625,-9.40625h21.63647c3.09063,0 5.7776,1.34428 7.52448,3.8974c1.74687,2.55312 2.28437,5.50832 1.34375,8.3302c-0.67187,2.15 0.5375,4.43543 2.6875,5.1073c2.15,0.5375 4.4328,-0.67135 5.10468,-2.82135c1.6125,-5.375 0.67397,-11.02085 -2.55103,-15.5896c-3.225,-4.56875 -8.46562,-6.98645 -14.10937,-6.98645zM113.47339,69.2005c-2.58882,0.24565 -4.93251,1.98466 -5.83954,4.70575l-8.0625,25.6651c-1.075,3.49375 0.8073,7.2573 4.43543,8.46668c0.67188,0.26875 1.34375,0.2677 2.01563,0.2677c2.82187,0 5.5078,-1.88125 6.44843,-4.70312l8.0625,-25.6651c1.075,-3.62812 -0.93905,-7.39167 -4.4328,-8.46667c-0.87344,-0.26875 -1.7642,-0.35221 -2.62714,-0.27032z"></path></g></g></svg>
