<svg xmlns="http://www.w3.org/2000/svg" x="0px" y="0px"
width="64" height="64"
viewBox="0 0 172 172"
style=" fill:#000000;"><g fill="none" fill-rule="nonzero" stroke="none" stroke-width="1" stroke-linecap="butt" stroke-linejoin="miter" stroke-miterlimit="10" stroke-dasharray="" stroke-dashoffset="0" font-family="none" font-weight="none" font-size="none" text-anchor="none" style="mix-blend-mode: normal"><path d="M0,172v-172h172v172z" fill="none"></path><g fill="#000000"><path d="M119.59375,2.6875c-20.425,0 -36.95312,16.52865 -37.625,37.49115c-0.5375,19.48438 18.14167,45.14947 29.2948,58.58697c2.15,2.55313 5.1052,3.8974 8.3302,3.8974c3.225,0 6.1802,-1.47865 8.3302,-3.8974c11.15313,-13.57188 29.96667,-39.1026 29.2948,-58.58697c-0.67187,-20.9625 -17.2,-37.49115 -37.625,-37.49115zM77.12128,9.1228c-0.2614,-0.02257 -0.52648,-0.01785 -0.79523,0.01575c-26.60625,2.95625 -49.45105,19.4828 -60.87292,44.07342c-18.14062,38.96875 -1.20937,85.32813 37.625,103.46875c10.48125,4.8375 21.63438,7.39063 32.92188,7.39063c9.00312,0 18.00678,-1.6125 26.74115,-4.70312c19.61875,-7.12187 35.2052,-21.36562 43.93958,-40.3125c3.7625,-8.0625 6.04845,-16.52655 6.98907,-25.26093c0.13438,-2.28437 -1.47917,-4.30105 -3.76355,-4.43542c-2.15,-0.26875 -4.16667,1.3427 -4.43542,3.62708c-0.80625,7.79375 -2.82135,15.45365 -6.18073,22.7099c-7.92812,16.93125 -21.90155,29.6974 -39.3703,36.1474c-17.46875,6.31563 -36.55157,5.51042 -53.34845,-2.28333c-2.55312,-1.20937 -4.97188,-2.55312 -7.39062,-4.03125c2.28437,-0.13438 4.70313,-0.80625 6.71875,-2.01562c2.41875,-1.34375 4.97345,-2.95835 7.66095,-4.8396c1.88125,-1.34375 3.49375,-3.08905 4.70313,-5.10468c1.34375,-2.41875 2.95468,-4.9724 3.76093,-7.92865c5.24062,-20.15625 -12.22812,-20.96303 -12.76562,-25.3974c-0.5375,-4.97187 5.91355,-8.7349 9.81043,-12.63177c3.89687,-3.89687 5.10468,-9.94375 3.08905,-13.4375c-6.45,-11.55625 -21.76718,-5.50728 -23.2453,6.85522c-0.80625,7.39063 -5.2422,14.91562 -9.0047,18.8125c-3.7625,3.89688 -11.15155,1.74583 -13.16718,-3.76355c-2.28438,-6.18125 5.64218,-8.46458 4.4328,-16.3927c-0.26875,-2.15 -2.55312,-3.22657 -5.375,-3.6297l-9.13593,0.27032c0.94063,-6.58437 2.8203,-13.16875 5.77655,-19.48437c10.2125,-22.0375 30.77292,-36.82085 54.82605,-39.7771c2.15,-0.26875 3.76197,-2.2828 3.49322,-4.4328c-0.23516,-1.88125 -1.80776,-3.35098 -3.63757,-3.50897zM119.59375,26.875c7.39063,0 13.4375,6.04688 13.4375,13.4375c0,7.39063 -6.04687,13.4375 -13.4375,13.4375c-7.39062,0 -13.4375,-6.04687 -13.4375,-13.4375c0,-7.39062 6.04688,-13.4375 13.4375,-13.4375z"></path></g></g></svg>
