<svg xmlns="http://www.w3.org/2000/svg" x="0px" y="0px"
width="96" height="96"
viewBox="0 0 172 172"
style=" fill:#000000;"><g fill="none" fill-rule="nonzero" stroke="none" stroke-width="1" stroke-linecap="butt" stroke-linejoin="miter" stroke-miterlimit="10" stroke-dasharray="" stroke-dashoffset="0" font-family="none" font-weight="none" font-size="none" text-anchor="none" style="mix-blend-mode: normal"><path d="M0,172v-172h172v172z" fill="none"></path><g id="original-icon" fill="#000000"><path d="M82.41667,0c-9.88216,0 -17.91667,8.03451 -17.91667,17.91667c0,4.64714 1.79167,8.90235 4.70313,12.09375l-1.56771,-0.44792c-1.03581,-0.5599 -1.76367,-0.83984 -2.23958,-0.89583c-0.75586,-0.11198 -1.48372,-0.11198 -2.23958,0c-0.44792,0.11198 -0.92383,0.25195 -1.34375,0.44792c-2.37956,0.41992 -4.75911,1.17578 -6.71875,3.13542c-3.58333,4.3112 -6.4388,7.08268 -10.75,12.09375c-7.89453,9.32226 -12.09375,15.17318 -15.67708,19.48438c-1.42774,2.1556 -6.49479,9.91016 -2.91146,16.34896c3.58333,5.73893 9.35026,8.5944 17.24479,10.75c6.63476,2.21159 21.97591,7.22266 30.90625,10.07813l12.54167,37.40104c0.47591,2.79948 2.54753,5.03906 5.26302,5.73893c2.74349,0.69988 5.62695,-0.25195 7.39063,-2.46354c1.76367,-2.21158 2.07162,-5.23502 0.78385,-7.75456l-14.33333,-43c-0.61588,-1.87565 -2.01562,-3.41536 -3.80729,-4.25521l-25.08333,-10.75l22.61979,-27.77083l47.47917,15.90104c2.51953,1.28776 5.54297,0.97982 7.75456,-0.78385c2.21159,-1.76367 3.16342,-4.64713 2.46354,-7.39062c-0.69987,-2.71549 -2.93945,-4.78711 -5.73893,-5.26302l-45.91146,-15.22917c8.48242,-1.39974 15.00521,-8.5944 15.00521,-17.46875c0,-9.88216 -8.03451,-17.91667 -17.91667,-17.91667zM40.3125,21.5c-12.14974,1.34375 -27.49088,10.35808 -31.80208,22.17188c-5.01107,12.9056 9.40625,19.48438 9.40625,19.48438l32.92188,-40.3125c-2.85547,-1.42774 -6.4668,-1.79167 -10.52604,-1.34375zM139.75,78.83333c-17.91667,0 -32.25,14.33333 -32.25,32.25c0,17.91667 14.33333,32.25 32.25,32.25c17.91667,0 32.25,-14.33333 32.25,-32.25c0,-17.91667 -14.33333,-32.25 -32.25,-32.25zM139.75,89.58333c12.17774,0 21.5,9.32226 21.5,21.5c0,12.17774 -9.32226,21.5 -21.5,21.5c-12.17774,0 -21.5,-9.32226 -21.5,-21.5c0,-12.17774 9.32226,-21.5 21.5,-21.5zM32.25,107.5c-17.91667,0 -32.25,14.33333 -32.25,32.25c0,17.91667 14.33333,32.25 32.25,32.25c17.91667,0 32.25,-14.33333 32.25,-32.25c0,-17.91667 -14.33333,-32.25 -32.25,-32.25zM32.25,118.25c12.17774,0 21.5,9.32226 21.5,21.5c0,12.17774 -9.32226,21.5 -21.5,21.5c-12.17774,0 -21.5,-9.32226 -21.5,-21.5c0,-12.17774 9.32226,-21.5 21.5,-21.5z"></path></g></g></svg>
