<svg xmlns="http://www.w3.org/2000/svg" x="0px" y="0px"
width="100" height="100"
viewBox="0 0 172 172"
style=" fill:#000000;"><g transform="translate(4.988,4.988) scale(0.942,0.942)"><g fill="none" fill-rule="nonzero" stroke="none" stroke-width="none" stroke-linecap="butt" stroke-linejoin="none" stroke-miterlimit="10" stroke-dasharray="" stroke-dashoffset="0" font-family="none" font-weight="none" font-size="none" text-anchor="none" style="mix-blend-mode: normal"><g fill="#000000" stroke="#000000" stroke-width="10" stroke-linejoin="round"><path d="M30.36822,21.90417c6.85312,1.6125 11.2875,5.10415 11.42188,5.23853c1.74687,1.34375 2.01563,3.89897 0.67188,5.51147c-1.34375,1.74688 -3.89582,2.01563 -5.6427,0.67188c-0.67187,-0.5375 -13.16875,-9.94532 -28.21875,1.07343c-0.80625,0.5375 -1.61355,0.80573 -2.4198,0.80573c-1.20937,0 -2.41927,-0.53645 -3.22552,-1.61145c-1.34375,-1.74687 -0.93853,-4.29895 0.80835,-5.6427c7.29824,-5.26582 14.14999,-6.84787 19.77307,-6.8421c2.55595,0.00263 4.85797,0.33331 6.8316,0.79523zM121.34167,26.875l3.2229,7.92865c3.7625,8.73438 6.7198,17.73802 9.13855,26.74115c2.82188,-5.64375 5.91302,-11.1547 9.2724,-16.39532l3.8974,-6.31457c1.88125,-3.09063 5.37395,-4.70312 9.00208,-4.03125c3.49375,0.5375 6.31667,3.22447 7.12292,6.8526l1.61145,7.25678c8.73438,39.2375 6.31667,74.8453 -6.98645,108.57343c3.7625,1.34375 7.39063,3.09272 10.75,5.51147l0.5354,0.40155c1.88125,1.20937 2.28647,3.76407 0.80835,5.64532c-0.67187,1.20937 -2.01615,1.7453 -3.22552,1.7453c-0.80625,0 -1.61407,-0.26823 -2.28595,-0.80573l-0.5354,-0.40417c-10.07812,-7.25625 -23.24897,-8.19688 -34.4021,-2.6875c-5.375,2.6875 -11.68958,2.6875 -17.06458,0c-3.09063,-1.47813 -6.7198,-1.47813 -9.81042,0l-3.49323,1.74792c-2.55313,1.34375 -5.5078,2.01563 -8.46405,2.01563h-65.03802c-1.47812,0 -2.82135,-0.9401 -3.49323,-2.14948c-0.26875,-0.80625 -9.5422,-18.275 -12.36407,-42.32812c-3.7625,-31.98125 5.64323,-60.06615 27.68073,-81.16303c1.6125,-1.47812 4.1672,-1.47865 5.64532,0.13385c1.47812,1.6125 1.47865,4.03282 -0.13385,5.64532c-43.5375,41.925 -20.0224,99.97395 -14.6474,111.79895h62.88593c-10.34688,-42.86563 -6.85103,-86.93958 10.2146,-127.92395l3.2229,-7.7948c1.34375,-3.49375 4.70417,-5.6427 8.46667,-5.6427c3.7625,0 6.98855,2.28333 8.46667,5.6427zM83.71667,39.90833c1.075,1.88125 0.5375,4.3021 -1.34375,5.51147c-0.67187,0.5375 -1.48022,0.67188 -2.1521,0.67188c-1.34375,0 -2.6854,-0.6724 -3.2229,-1.88177c-7.25625,-11.69062 -20.4271,-6.04793 -20.9646,-5.77918c-2.15,0.94062 -4.43437,0 -5.375,-2.01562c-0.94063,-2.15 0,-4.43437 2.01563,-5.375c2.56992,-1.15898 6.35132,-2.18622 10.53216,-2.27283c6.96808,-0.14435 15.05157,2.32269 20.51056,11.14105zM111.79895,29.8302l-3.2229,7.7948c-16.25937,38.96875 -19.61927,81.16355 -9.94427,122.01355l0.40155,-0.13647c5.24063,-2.55312 11.55835,-2.55312 16.93335,0c3.09063,1.6125 6.71718,1.74897 9.8078,0.13647c0.94063,-0.5375 1.61303,-1.3448 1.88178,-2.4198c9.00313,-40.04375 5.37395,-81.29687 -10.4823,-119.59375l-3.2229,-7.7948c-0.26875,-0.5375 -0.8073,-0.67187 -1.07605,-0.67187c-0.26875,0 -0.8073,0.13438 -1.07605,0.67188zM31.71197,40.0448c0.40313,2.15 -1.20938,4.2979 -3.35937,4.56665c-0.5375,0.13437 -13.7052,2.41875 -19.75207,18.14063c-0.67187,1.6125 -2.15105,2.55365 -3.76355,2.55365c-0.5375,0 -0.9401,-0.13332 -1.4776,-0.2677c-2.01562,-0.80625 -3.08958,-3.22553 -2.28333,-5.24115c7.79375,-20.29062 25.2604,-22.97708 26.06665,-23.11145c0.26875,-0.05039 0.53802,-0.07007 0.8031,-0.06036c1.85553,0.06797 3.53102,1.53849 3.76617,3.41974zM54.68958,41.25208c0.40312,0.13437 30.1021,11.69063 20.9646,53.07813c-0.40312,1.88125 -2.01615,3.22552 -3.8974,3.22552c-0.40313,0 -0.67345,-0.13385 -0.9422,-0.13385c-2.15,-0.40313 -3.62655,-2.5526 -3.08905,-4.83697c7.525,-34.26562 -14.91668,-43.26875 -15.8573,-43.67187c-2.01562,-0.80625 -3.08957,-3.22553 -2.28332,-5.24115c0.50391,-1.6125 1.98885,-2.61926 3.55096,-2.68225c0.5207,-0.021 1.0498,0.06089 1.55371,0.26245zM153.72552,43l-3.8974,6.31458c-3.49375,5.50937 -6.58437,11.01875 -9.40625,16.79688c7.39063,27.81562 8.7349,56.84062 3.8974,85.32813c-0.40312,1.88125 1.07343,3.76302 3.08905,3.8974c1.47813,0.13438 2.8224,-0.67083 3.22552,-2.28333c12.49687,-32.11562 14.51198,-64.90417 6.18073,-102.52917l-1.61145,-7.25677c0,-0.40313 -0.26875,-0.67187 -0.67187,-0.67187c-0.13438,-0.03359 -0.24303,-0.03149 -0.33332,-0.0105c-0.27085,0.06299 -0.37163,0.31389 -0.47241,0.41467zM50.52447,58.18542c0.13438,0.94063 2.15,23.24478 -8.73437,50.25415c-0.67187,1.6125 -2.14843,2.55365 -3.76093,2.55365c-0.5375,0 -0.94272,-0.13332 -1.48022,-0.2677c-2.01562,-0.80625 -3.08958,-3.22553 -2.28333,-5.24115c10.07813,-25.12812 8.19635,-46.22447 8.19635,-46.49322c-0.26875,-2.28437 1.4797,-4.16668 3.6297,-4.43543c0.28555,-0.03359 0.56401,-0.03412 0.8346,-0.00787c1.89411,0.18372 3.36305,1.75632 3.59821,3.63757zM117.17395,90.97083v56.57397c0,2.28438 -1.74688,4.03125 -4.03125,4.03125c-2.28438,0 -4.03125,-1.74687 -4.03125,-4.03125v-56.57397c0,-2.28438 1.74687,-4.03125 4.03125,-4.03125c2.28437,0 4.03125,1.88125 4.03125,4.03125zM10.75,166.625c0,2.2264 -1.80485,4.03125 -4.03125,4.03125c-2.2264,0 -4.03125,-1.80485 -4.03125,-4.03125c0,-2.2264 1.80485,-4.03125 4.03125,-4.03125c2.2264,0 4.03125,1.80485 4.03125,4.03125z"></path></g><path d="M0,172v-172h172v172z" fill="none" stroke="none" stroke-width="1" stroke-linejoin="miter"></path><g fill="#ffffff" stroke="none" stroke-width="1" stroke-linejoin="miter"><path d="M23.53662,21.10895c-5.62308,-0.00577 -12.47483,1.57628 -19.77307,6.8421c-1.74687,1.34375 -2.1521,3.89583 -0.80835,5.6427c0.80625,1.075 2.01615,1.61145 3.22552,1.61145c0.80625,0 1.61355,-0.26823 2.4198,-0.80573c15.05,-11.01875 27.54688,-1.61093 28.21875,-1.07343c1.74688,1.34375 4.29895,1.075 5.6427,-0.67187c1.34375,-1.6125 1.075,-4.16772 -0.67187,-5.51147c-0.13437,-0.13437 -4.56875,-3.62603 -11.42187,-5.23853c-1.97363,-0.46191 -4.27566,-0.7926 -6.8316,-0.79523zM112.875,21.2323c-3.7625,0 -7.12292,2.14895 -8.46667,5.6427l-3.2229,7.7948c-17.06562,40.98438 -20.56147,85.05833 -10.2146,127.92395h-0.5354h-62.35052c-5.375,-11.825 -28.8901,-69.87395 14.6474,-111.79895c1.6125,-1.6125 1.61198,-4.03282 0.13385,-5.64532c-1.47812,-1.6125 -4.03282,-1.61197 -5.64532,-0.13385c-22.0375,21.09687 -31.44323,49.18178 -27.68073,81.16303c2.82188,24.05312 12.09532,41.52187 12.36407,42.32812c0.67188,1.20937 2.0151,2.14948 3.49323,2.14948h65.03802c2.95625,0 5.91093,-0.67187 8.46405,-2.01562l3.49323,-1.74792c3.09062,-1.47813 6.7198,-1.47813 9.81042,0c5.375,2.6875 11.68958,2.6875 17.06458,0c11.15313,-5.50938 24.32397,-4.56875 34.4021,2.6875l0.5354,0.40417c0.67188,0.5375 1.4797,0.80573 2.28595,0.80573c1.20937,0 2.55365,-0.53593 3.22552,-1.7453c1.47813,-1.88125 1.0729,-4.43595 -0.80835,-5.64532l-0.5354,-0.40155c-3.35937,-2.41875 -6.9875,-4.16772 -10.75,-5.51147c13.30312,-33.72813 15.72083,-69.33593 6.98645,-108.57343l-1.61145,-7.25678c-0.80625,-3.62812 -3.62917,-6.3151 -7.12292,-6.8526c-3.62813,-0.67187 -7.12083,0.94062 -9.00208,4.03125l-3.8974,6.31457c-3.35937,5.24063 -6.45052,10.75157 -9.2724,16.39532c-2.41875,-9.00313 -5.37605,-18.00677 -9.13855,-26.74115l-3.2229,-7.92865c-1.47812,-3.35937 -4.70417,-5.6427 -8.46667,-5.6427zM63.20612,28.76727c-4.18085,0.08661 -7.96224,1.11384 -10.53216,2.27283c-2.01562,0.94063 -2.95625,3.225 -2.01562,5.375c0.94063,2.01563 3.225,2.95625 5.375,2.01563c0.5375,-0.26875 13.70835,-5.91145 20.9646,5.77918c0.5375,1.20937 1.87915,1.88177 3.2229,1.88177c0.67188,0 1.48022,-0.13437 2.1521,-0.67187c1.88125,-1.20937 2.41875,-3.63022 1.34375,-5.51147c-5.45898,-8.81836 -13.54248,-11.2854 -20.51056,-11.14105zM112.875,29.15833c0.26875,0 0.8073,0.13438 1.07605,0.67188l3.2229,7.7948c15.85625,38.29688 19.48542,79.55 10.4823,119.59375c-0.26875,1.075 -0.94115,1.8823 -1.88178,2.4198c-3.09062,1.6125 -6.71718,1.47603 -9.8078,-0.13647c-5.375,-2.55312 -11.69272,-2.55312 -16.93335,0l-0.40155,0.13647c-9.675,-40.85 -6.3151,-83.0448 9.94427,-122.01355l3.2229,-7.7948c0.26875,-0.5375 0.8073,-0.67187 1.07605,-0.67187zM27.9458,36.62506c-0.26508,-0.00971 -0.53435,0.00997 -0.8031,0.06036c-0.80625,0.13437 -18.2729,2.82083 -26.06665,23.11145c-0.80625,2.01563 0.2677,4.4349 2.28333,5.24115c0.5375,0.13438 0.9401,0.2677 1.4776,0.2677c1.6125,0 3.09167,-0.94115 3.76355,-2.55365c6.04688,-15.72188 19.21457,-18.00625 19.75207,-18.14062c2.15,-0.26875 3.7625,-2.41665 3.35938,-4.56665c-0.23516,-1.88125 -1.91064,-3.35176 -3.76617,-3.41974zM53.13586,40.98962c-1.56211,0.06299 -3.04706,1.06975 -3.55096,2.68225c-0.80625,2.01563 0.2677,4.4349 2.28332,5.24115c0.94062,0.40313 23.3823,9.40625 15.8573,43.67188c-0.5375,2.28437 0.93905,4.43385 3.08905,4.83697c0.26875,0 0.53907,0.13385 0.9422,0.13385c1.88125,0 3.49427,-1.34427 3.8974,-3.22552c9.1375,-41.3875 -20.56147,-52.94375 -20.9646,-53.07812c-0.50391,-0.20156 -1.03301,-0.28345 -1.55371,-0.26245zM154.19793,42.58533c0.09029,-0.021 0.19894,-0.0231 0.33332,0.0105c0.40312,0 0.67188,0.26875 0.67188,0.67188l1.61145,7.25677c8.33125,37.625 6.31615,70.41355 -6.18073,102.52917c-0.40312,1.6125 -1.7474,2.4177 -3.22552,2.28333c-2.01562,-0.13438 -3.49218,-2.01615 -3.08905,-3.8974c4.8375,-28.4875 3.49323,-57.5125 -3.8974,-85.32813c2.82188,-5.77812 5.9125,-11.2875 9.40625,-16.79687l3.8974,-6.31458c0.10078,-0.10078 0.20156,-0.35168 0.47241,-0.41467zM46.92627,54.54785c-0.27059,-0.02624 -0.54905,-0.02572 -0.8346,0.00787c-2.15,0.26875 -3.89845,2.15105 -3.6297,4.43543c0,0.26875 1.88178,21.3651 -8.19635,46.49322c-0.80625,2.01563 0.2677,4.4349 2.28333,5.24115c0.5375,0.13437 0.94272,0.2677 1.48022,0.2677c1.6125,0 3.08905,-0.94115 3.76093,-2.55365c10.88438,-27.00938 8.86875,-49.31353 8.73438,-50.25415c-0.23516,-1.88125 -1.7041,-3.45386 -3.59821,-3.63757zM113.1427,86.93958c-2.28438,0 -4.03125,1.74687 -4.03125,4.03125v56.57397c0,2.28438 1.74687,4.03125 4.03125,4.03125c2.28437,0 4.03125,-1.74687 4.03125,-4.03125v-56.57397c0,-2.15 -1.74688,-4.03125 -4.03125,-4.03125zM6.71875,162.59375c-2.2264,0 -4.03125,1.80485 -4.03125,4.03125c0,2.2264 1.80485,4.03125 4.03125,4.03125c2.2264,0 4.03125,-1.80485 4.03125,-4.03125c0,-2.2264 -1.80485,-4.03125 -4.03125,-4.03125z"></path></g><path d="" fill="none" stroke="none" stroke-width="1" stroke-linejoin="miter"></path></g></g></svg>
