<svg xmlns="http://www.w3.org/2000/svg" x="0px" y="0px"
width="100" height="100"
viewBox="0 0 172 172"
style=" fill:#000000;"><g transform=""><g fill="none" fill-rule="nonzero" stroke="none" stroke-width="1" stroke-linecap="butt" stroke-linejoin="miter" stroke-miterlimit="10" stroke-dasharray="" stroke-dashoffset="0" font-family="none" font-weight="none" font-size="none" text-anchor="none" style="mix-blend-mode: normal"><path d="M0,172v-172h172v172z" fill="none"></path><path d="" fill="none"></path><g fill="#000000"><path d="M134.16,6.88c-9.50031,0 -17.2,7.69969 -17.2,17.2c0,9.50031 7.69969,17.2 17.2,17.2c9.50031,0 17.2,-7.69969 17.2,-17.2c0,-9.50031 -7.69969,-17.2 -17.2,-17.2zM55.04,10.32c-3.80281,0 -6.88,3.07719 -6.88,6.88c0,1.54531 0.52406,3.03688 1.46469,4.24625l-0.01344,0.02688l18.12719,21.43281l20.55938,6.97406l-21.5,18.705l-0.04031,0.08063c-3.06375,2.60687 -4.82406,6.42312 -4.8375,10.45437v25.8l-26.1225,12.87313l0.01344,0.02687c-2.95625,1.43781 -4.85094,4.44781 -4.85094,7.74c0,4.74344 3.85656,8.6 8.6,8.6c1.59906,0 3.15781,-0.44344 4.515,-1.29l29.5625,-15.695c3.37281,-1.78719 5.4825,-5.29437 5.4825,-9.11062v-13.12844l20.15625,14.33781l-6.14094,24.45625l0.02687,0.01344c-0.18812,0.69875 -0.28219,1.41094 -0.28219,2.13656c0,4.74344 3.85656,8.6 8.6,8.6c4.46125,0 8.17,-3.39969 8.55969,-7.8475l6.70531,-28.32625v-0.01344c0.14781,-0.5375 0.215,-1.10188 0.215,-1.65281c0,-2.21719 -1.075,-4.3 -2.88906,-5.59l-0.01344,-0.01344c-0.04031,-0.02688 -0.06719,-0.05375 -0.09406,-0.08063l-18.51687,-14.63344l22.17187,-20.1025l32.70688,24.99375c1.23625,1.075 2.83531,1.66625 4.47469,1.66625c3.80281,0 6.88,-3.07719 6.88,-6.88c0,-2.12312 -0.98094,-4.12531 -2.66062,-5.42875l-48.93938,-39.29125l-33.36531,-9.63469l-16.28625,-18.71844c-1.30344,-1.65281 -3.29219,-2.60688 -5.38844,-2.60688zM15.48,130.72c-2.84875,0 -5.16,2.31125 -5.16,5.16c0,2.48594 1.77375,4.6225 4.21938,5.06594c3.80281,1.1825 67.52344,20.425 143.68719,20.73406h0.01344c1.89469,0 3.44,-1.54531 3.44,-3.44c0,-1.67969 -1.22281,-3.1175 -2.88906,-3.38625v-0.01344l-142.30312,-24.05313l-0.01344,0.02688c-0.3225,-0.06719 -0.65844,-0.09406 -0.99438,-0.09406zM17.37469,148.94125l-7.05469,12.73875c0,0 15.85625,-0.44344 26.20313,-7.83406c-8.35813,-1.94844 -14.90219,-3.69531 -19.14844,-4.90469z"></path></g></g></g></svg>
